<svg width="150" height="103" viewBox="0 0 150 103" fill="none" xmlns="http://www.w3.org/2000/svg">
<path fill-rule="evenodd" clip-rule="evenodd" d="M150 103H0V0H150V103ZM6.98175 96.0764H143.018V91.9813L98.6044 54.2294L84.6102 72.7736L56.3756 44.7742L6.98175 87.3845V96.0764ZM97.4972 44.1642L143.018 82.8612V6.9236H6.98175V78.2193L56.7139 35.3496L83.8413 62.251L97.4972 44.1642ZM110.474 41.0151C112.943 42.6506 115.844 43.5235 118.813 43.5235C122.791 43.5155 126.604 41.9447 129.417 39.1551C132.23 36.3655 133.814 32.5844 133.822 28.6393C133.822 25.6955 132.942 22.8178 131.293 20.3701C129.643 17.9224 127.299 16.0146 124.557 14.8881C121.814 13.7615 118.796 13.4668 115.885 14.0411C112.973 14.6154 110.299 16.033 108.2 18.1146C106.101 20.1962 104.671 22.8483 104.092 25.7355C103.513 28.6228 103.81 31.6155 104.946 34.3352C106.082 37.055 108.006 39.3796 110.474 41.0151ZM114.336 21.9949C115.661 21.1169 117.219 20.6482 118.813 20.6482C120.95 20.6482 123 21.4901 124.511 22.9887C126.022 24.4874 126.871 26.5199 126.871 28.6393C126.871 30.2198 126.399 31.7648 125.513 33.0789C124.628 34.3931 123.369 35.4173 121.897 36.0221C120.424 36.627 118.804 36.7852 117.241 36.4769C115.678 36.1685 114.242 35.4074 113.115 34.2899C111.988 33.1723 111.22 31.7484 110.91 30.1983C110.599 28.6482 110.758 27.0414 111.368 25.5812C111.978 24.121 113.011 22.873 114.336 21.9949Z" fill="#11181F"/>
</svg>
